<?xml version="1.0" standalone="no"?>
<!DOCTYPE svg PUBLIC "-//W3C//DTD SVG 20010904//EN"
 "http://www.w3.org/TR/2001/REC-SVG-20010904/DTD/svg10.dtd">
<svg version="1.0" xmlns="http://www.w3.org/2000/svg"
 width="667.000000pt" height="375.000000pt" viewBox="0 0 667.000000 375.000000"
 preserveAspectRatio="xMidYMid meet">

<g transform="translate(0.000000,375.000000) scale(0.100000,-0.100000)"
fill="#000000" stroke="none">
<path d="M2780 3626 c-318 -57 -574 -188 -790 -406 -199 -199 -328 -433 -392
-710 -25 -111 -35 -375 -19 -491 47 -325 186 -602 416 -831 486 -485 1258
-552 1824 -161 l64 45 484 -484 483 -483 127 128 128 127 -483 483 -483 483
57 84 c105 157 183 347 220 540 24 129 25 379 1 510 -89 483 -421 892 -874
1076 -178 72 -295 95 -508 99 -123 3 -204 0 -255 -9z m417 -361 c452 -86 795
-438 868 -889 43 -264 -16 -535 -166 -766 -53 -81 -214 -243 -294 -295 -528
-345 -1219 -186 -1534 353 -95 162 -131 294 -138 502 -6 177 11 283 66 426 75
193 243 402 409 509 126 81 279 141 412 164 90 14 290 12 377 -4z"/>
<path d="M3002 3014 l3 -179 35 -3 c196 -14 380 -120 486 -279 48 -72 91 -193
100 -278 l7 -65 180 0 180 0 -8 82 c-41 476 -430 863 -898 895 l-87 6 2 -179z"/>
</g>
</svg>
